<svg width="400" height="160" viewBox="0 0 400 160" fill="none" xmlns="http://www.w3.org/2000/svg">
  <defs>
    <linearGradient id="goldGradient" x1="0%" y1="0%" x2="100%" y2="100%">
      <stop offset="0%" style="stop-color:#FFD700;stop-opacity:1" />
      <stop offset="30%" style="stop-color:#FFA500;stop-opacity:1" />
      <stop offset="70%" style="stop-color:#FF8C00;stop-opacity:1" />
      <stop offset="100%" style="stop-color:#DAA520;stop-opacity:1" />
    </linearGradient>
    <linearGradient id="buildingGradient" x1="0%" y1="0%" x2="100%" y2="100%">
      <stop offset="0%" style="stop-color:#FFD700;stop-opacity:1" />
      <stop offset="50%" style="stop-color:#FFA500;stop-opacity:1" />
      <stop offset="100%" style="stop-color:#FF8C00;stop-opacity:1" />
    </linearGradient>
  </defs>
  
  <!-- Background -->
  <rect width="400" height="160" fill="white" rx="12"/>
  
  <!-- Building Complex -->
  <g transform="translate(60, 25)">
    <!-- Main buildings with windows -->
    <rect x="0" y="40" width="25" height="70" fill="url(#buildingGradient)" rx="2"/>
    <rect x="30" y="25" width="35" height="85" fill="url(#buildingGradient)" rx="2"/>
    <rect x="70" y="35" width="25" height="75" fill="url(#buildingGradient)" rx="2"/>
    
    <!-- Windows for realism -->
    <rect x="5" y="50" width="4" height="4" fill="white" opacity="0.9"/>
    <rect x="12" y="50" width="4" height="4" fill="white" opacity="0.9"/>
    <rect x="18" y="50" width="4" height="4" fill="white" opacity="0.9"/>
    <rect x="5" y="65" width="4" height="4" fill="white" opacity="0.9"/>
    <rect x="12" y="65" width="4" height="4" fill="white" opacity="0.9"/>
    <rect x="18" y="65" width="4" height="4" fill="white" opacity="0.9"/>
    
    <rect x="35" y="35" width="5" height="5" fill="white" opacity="0.9"/>
    <rect x="45" y="35" width="5" height="5" fill="white" opacity="0.9"/>
    <rect x="55" y="35" width="5" height="5" fill="white" opacity="0.9"/>
    <rect x="35" y="50" width="5" height="5" fill="white" opacity="0.9"/>
    <rect x="45" y="50" width="5" height="5" fill="white" opacity="0.9"/>
    <rect x="55" y="50" width="5" height="5" fill="white" opacity="0.9"/>
    
    <rect x="75" y="45" width="4" height="4" fill="white" opacity="0.9"/>
    <rect x="85" y="45" width="4" height="4" fill="white" opacity="0.9"/>
    <rect x="75" y="60" width="4" height="4" fill="white" opacity="0.9"/>
    <rect x="85" y="60" width="4" height="4" fill="white" opacity="0.9"/>
    
    <!-- Base platform -->
    <rect x="-5" y="110" width="110" height="8" fill="url(#goldGradient)" rx="4"/>
  </g>
  
  <!-- Main Text -->
  <text x="200" y="70" font-family="Arial, sans-serif" font-size="36" font-weight="bold" fill="url(#goldGradient)">LOFT ALGERIE</text>
  
  <!-- Subtitle -->
  <text x="200" y="100" font-family="Arial, sans-serif" font-size="14" font-weight="500" fill="#B8860B">VOTRE CONFORT NOTRE PRIORITÉ</text>
  
  <!-- Decorative elements -->
  <circle cx="350" cy="40" r="3" fill="url(#goldGradient)" opacity="0.6"/>
  <circle cx="365" cy="55" r="2" fill="url(#goldGradient)" opacity="0.4"/>
  <circle cx="340" cy="120" r="2.5" fill="url(#goldGradient)" opacity="0.5"/>
</svg>