<?xml version="1.0" encoding="UTF-8"?>
<svg id="Calque" xmlns="http://www.w3.org/2000/svg" viewBox="0 0 515.3 109.68">
  <g id="Desert">
    <path d="M514.65,41.17c-1.87-.96-4.28-1.01-6.35-.67-.77.18-1.48.08-2.16-.35-1.53-.97-3.09-1.78-4.9-1.48-.65.09-1.37.27-2.02.2-1.15-.12-1.73-1.11-2.64-1.64-1.55-.88-1.4.65-1.55,1.68-.1.5-.48.74-1.03.88-2.91.7.97,3.12.18,4.71-1.68,2.15-2.57,4.79-3.95,7.21-.39.57-.93,1.01-1.5,1.4-1.43.9-2.58,2.11-4.23,2.34-.73.11-1.4-.02-1.82-.59-.45-.74-.99-1.56-1.88-1.89-9.34-4.39-3.9-4.57-7.33-11.5-1.01-1.36-2.85-1.93-4.39-2.55-1.77-1.37-1.66-4.16-2.78-6.02-.49-1.12-1.45-1.89-2.28-2.74-1.26-1.27-1.88-2.95-2.25-4.67-.34-1.24-.97-2.4-.99-3.7-.1-2.01.61-4.54-.96-6.2-.38-.43-.74-.87-.76-1.38.23-2.04.27-4.2.28-6.29-.33-1.47-1.4-2.74-1.29-4.29-.06-1.33-1.61-.63-2.4-1.2-1.96-.92-2.88-.76-4.01,1.15-.51.43-1.31.74-1.34,1.6-.05,1.55,1.07,3.12.59,4.72-.36,1.48-1.75,1.84-2.14,3.29-.18.58-.38,1.29-1.09,1.34-1.67-.11-3.4.95-5.08.71-.38-.05-.76-.15-1.13-.2-.91-.21-2.36.53-2.06,1.6.21.63,1.16.98,1.47,1.64.23.45.26.96.25,1.47-.18,2.84-.13,5.63-.77,8.31-.33.81-1.2.53-1.93.59-1.2.06-2.29.53-3.34,1.09-2.55,1.3-4.64,3.27-5.67,5.88-.21.52-.41,1.05-.77,1.49-1.62,1.7-4.28,2.84-4.68,5.24-.18.79.01,1.65-.24,2.42-.39,1.03-1.39,1.81-1.68,2.91-.39,1.11.26,2.3-.11,3.58-.13.54-.28,1.1-.47,1.61-.32,1.03-1.42,1.39-2.18,2.02-1.52,1.39-2.98,3.45-2.79,5.58.14,1.04.25,2.14-.31,3.09-.42.79-.95,1.53-1.23,2.39-.48,1.25-.21,2.79-.94,3.89-.87,1.23-2.65,2.54-1.01,4,.02.04.3.17.25.12l.03-.06c-.04-.21-.74-1.38-.24-1.22.26.11.59.45.86.46.17,0,.29-.18.38-.45.2-.98.88-1.74,1.74-2.25,4.6-2.92.37-9.28,3.45-12.06.57-.16.29,1.9.47,2.6,1.72,7.24,1.57,5.75-1.02,12.65-.75,2.83-2.36,5.39-4.45,7.42-1.4,1.34-2.96,3-3.74,4.71-1.82,3.68-.02,7.44.01,11.68-.34,3.13.62,6.12.97,9.13-.02,1.35.72,2.24,2.21,2.41,7.27.82.98-4.11.61-7.35-1.28-6.27-1.23-13.74,3.37-18.63,1.46-1.42,2.78-4.06,4.88-4.39.48.14.35,1.25.39,2.07.08,1.96.07,3.68-.04,5.53-.3,5.22-1.19,4.39.97,7.76,1.69,2.76,3.68,5.46,5.22,8.31.62,1.25.57,2.78.91,4.06.35,2.64,2.87,2.57,4.95,2.36,3.17.01,1.54-1.33.36-2.81-3.27-4-5.5-8.63-7.68-13.19-.94-1.99-.53-4.21-.76-6.34-.59-4.5.99-8.89,3.86-12.31.22-.24.49-.47.8-.49.62.02.58.74.44,1.37-.23.87.08,1.68.94,1.93,2.42.85,1.66-3.57,3.99-2.83.61.18.71.69.54,1.33-.39,1.09.28,2.16,1.42,2.15,1.8.14,1.35-3.21,3.2-2.89,1.47.28.18,1.97.74,2.88.66,1.27,2.37,1.02,2.8-.33.4-1.12.73-2.23,2.24-1.98,1.46.08.94,1.15.94,2.08.06,1.29,2.24,2.12,3.07,1.06.66-.81.51-2.36,1.4-2.65.49-.16,1.22-.2,1.62.18.33.39.04,1.06.06,1.53-.02.68.48,1.2,1.19,1.43,2.38.68,1.77-1.82,2.8-2.81.8-.49,1.91-.17,1.82.88-.13,1.23,1.32,1.79,1.36,2.92-.49,4.43-2.83,8.79-2.44,13.34.32,4.88-.43,9.94-1.03,14.74-.02.74.47,1.19,1.3,1.43,1.21.38,3.09.6,3.49-.1.17-.29.11-.73,0-1.22-.39-1.55-.8-3.12-1.01-4.7-.57-3.46.02-6.83.99-10.16.59-4.65,2.06-9.07,3.38-13.56.14-.64.52-1.29,1.1-.7,2.95,3.33,7.76,7.67,4.76,12.42-2.39,4.21-3.87,8.77-5.94,13.16-.3.7-.64,1.57-.12,2.23.75.82,2.3,1.51,3.32,1.5.75-.02.9-.85.89-1.51.03-3.81.99-7.65,2.44-11.19.94-1.82,2.24-3.49,3.1-5.37,3.05-5.25-2.7-8.65-3.35-13.53-.22-1.22.73-2.28,1.57-3.03.48-.36,1.01-.06,1.33.35,1.05,1.48,2.09,2.91,3.5,4.1,8.09,7.08,16.96,2.06,21.24-6.45,5.57-6.82,8.01-15.51,10.66-23.77.2-.73.61-1.3,1.37-1.54,2.27-.54,2.97-3.25,2.01-5.21-.16-.3-.07.1-.19.15h-.04v-.02ZM413.33,72.95v-.88h.13v.88h-.25.13-.01ZM415.85,67.41h-.25c.13-.38.25-.76.38-1.01h.13c0,.38-.25.76-.38,1.13h0l.13-.13h-.01ZM415.85,65.64s-.13,0-.13-.13c.25-.38.38-.63.63-1.01h.25c-.25.38-.38.76-.63,1.13h-.13.01ZM417.36,60.1h-.13v-.88h.13v.88h0ZM491.66,80.95c-5.16,1.86-10.92-1.2-13.69-5.74-.32-.54,0-.34.34-.11,3.39,2.38,7.61,3.72,11.75,3.21,2.49-.21,4.94-1.21,7.24-2.05.09.01.08.11,0,.26-1.23,1.99-3.31,3.58-5.51,4.38l-.13.05h0ZM500.47,71.08c-4.84,7.01-16.25,7.72-22.29,1.79-.52-.62-.32-.63.4-.73.47-.07.76-.49,1.18-.63.11-.01.21.06.32.17.11.12.08.12.35.4.87.82,2.39.04,3.34.39.69.29,1.02-.29,1.42-.7.32-.28.75-.08,1.11-.26.26-.12.47-.45.71-.64.51-.34,1.07.06,1.72-.05.46-.03.92,0,1.33-.1.55-.15.97-.68,1.53-.69,1.5.06,1.88-1.73,2.95-2.46,1.59-.89,1.63-2.94,2.79-4.14,1.16-.97,3.13.43,4.02-.87.35-.67.64-1.37,1.29-1.8,1.19-.95,1.07-2.73,1.69-4.03.32-.57,1.23-.48,1.66-1.1.49-.59.47-1.62,1.06-2.03.59-.21.44.74.29,1.11-2.07,5.39-4.7,10.81-6.82,16.26l-.04.11h0ZM504.2,65.29c2.05-5.39,3.97-10.8,5.93-16.32.13-.52.5-1.66,1.06-1.47-.22,2.63-5.49,15.41-7.01,17.84l.02-.05h0Z" style="fill: #c29b4c;"/>
  </g>
  <g id="Destination">
    <path d="M18.81,1.52c7.79,0,13.55,1.69,17.45,5.25,3.05,2.88,5.42,7.12,5.42,13.38s-2.88,12.37-7.62,15.93c-4.57,3.39-10.34,5.08-17.28,5.08H0v-2.2c4.74-.34,5.25-.85,5.25-5.93V9.83c0-5.09-.68-5.59-5.25-5.93V1.69h18.81v-.17ZM13.72,32.53c0,4.41,1.02,5.76,5.59,5.76,8.3,0,13.05-5.76,13.05-17.28s-1.52-10.84-4.41-13.55c-2.54-2.54-5.76-3.39-9.83-3.39s-3.22.51-3.73.85c-.51.51-.68,1.52-.68,3.39v24.06h0v.17h0Z" style="fill: #16253e;"/>
    <path d="M80.82,30.84c-.34,1.69-2.03,8.64-2.54,10.34h-31.85v-2.2c5.59-.51,5.93-.85,5.93-5.93V9.66c0-5.25-.68-5.59-4.91-5.93V1.52h29.48c0,1.02.34,6.1.68,9.83l-2.37.34c-.51-2.03-1.52-4.57-2.54-5.76-1.19-1.19-1.86-1.52-5.08-1.52h-3.9c-2.37,0-2.54,0-2.54,2.2v12.71h5.93c3.39,0,4.07-.85,4.91-5.25h2.37v13.55h-2.37c-1.02-4.57-1.52-5.25-5.08-5.25h-5.93v10.5c0,4.24,0,5.42,3.9,5.59h4.41c3.39,0,4.41-.34,5.76-2.03,1.52-1.69,2.71-4.07,3.73-6.1l2.2.51h-.19Z" style="fill: #16253e;"/>
    <path d="M108.26,11.69c-1.19-3.9-2.88-8.3-8.64-8.3s-5.93,2.54-5.93,5.93,2.2,5.42,7.62,8.13c6.61,3.22,10.67,6.44,10.67,12.37s-5.93,12.37-14.74,12.37-7.45-1.02-10.34-1.86c-.34-1.36-1.36-7.79-1.86-10.67l2.37-.51c1.19,3.9,4.74,10.5,10.67,10.5s5.93-2.37,5.93-6.27-2.2-5.59-7.29-8.3c-6.44-3.39-10.5-6.44-10.5-12.88S91.32.68,100.47.68s7.45.85,8.81,1.02c.17,2.2.68,5.42,1.19,9.32l-2.37.51h0l.17.17h0Z" style="fill: #16253e;"/>
    <path d="M150.62,12.03c-.68-2.88-2.03-5.08-2.71-5.93-1.19-1.36-1.52-1.69-5.25-1.69h-3.9v28.63c0,5.08.68,5.42,6.1,5.93v2.2h-20.33v-2.2c5.25-.34,5.76-.85,5.76-5.93V4.41h-3.73c-3.39,0-4.41.51-5.59,2.03-.85,1.19-1.69,3.39-2.54,5.76h-2.37c.34-4.41.85-9.15,1.02-12.2h1.86c.85,1.36,1.69,1.52,3.56,1.52h24.57c1.69,0,2.54-.34,3.56-1.52h1.86c0,2.54.34,7.96.68,11.86h-2.37c0,.17,0,0,0,0l-.17.17h0Z" style="fill: #16253e;"/>
    <path d="M157.23,41.17v-2.2c4.74-.34,5.25-.85,5.25-5.93V9.83c0-5.08-.68-5.59-5.25-5.93V1.69h18.98v2.2c-4.57.34-5.25.85-5.25,5.93v23.21c0,5.08.51,5.42,5.25,5.93v2.2h-18.98Z" style="fill: #16253e;"/>
    <path d="M223.98,3.73c-3.73.51-4.91,1.36-5.08,4.07-.17,2.37-.34,4.41-.34,9.83v24.23h-3.39l-25.58-30.5v13.72c0,5.25,0,7.62.34,9.49.17,2.71,1.52,4.07,6.1,4.41v2.2h-15.25v-2.2c3.56-.34,5.08-1.19,5.42-4.07.17-2.2.34-4.41.34-9.66v-14.4c0-2.03,0-3.39-1.36-4.91-1.19-1.52-2.54-1.69-5.08-1.86V1.86h12.03l23.38,26.94v-11.01c0-5.25,0-7.29-.17-9.49-.17-2.71-1.19-3.9-6.27-4.24V1.86h15.08v2.2h0l-.17-.34h0Z" style="fill: #16253e;"/>
    <path d="M247.87,41.17v-2.2c3.9-.51,3.9-1.19,3.05-3.9-.68-1.86-1.52-4.57-2.54-6.95h-12.03c-.68,1.86-1.52,4.24-2.2,6.1-1.36,3.9.17,4.41,5.08,4.74v2.2h-15.08v-2.2c3.9-.51,4.91-1.02,6.95-6.1l12.71-31.51,2.88-.51c3.9,10.67,8.13,21.52,12.03,31.68,2.2,5.76,2.88,6.1,6.78,6.61v2.2h-17.79l.17-.17h-.01ZM242.45,12.03c-1.86,4.41-3.56,8.47-5.08,12.88h9.83l-4.74-12.88h0Z" style="fill: #16253e;"/>
    <path d="M296.84,12.03c-.68-2.88-2.03-5.08-2.71-5.93-1.02-1.36-1.52-1.69-5.25-1.69h-3.9v28.63c0,5.08.68,5.42,6.1,5.93v2.2h-20.33v-2.2c5.25-.34,5.76-.85,5.76-5.93V4.41h-3.73c-3.39,0-4.41.51-5.59,2.03-.85,1.19-1.69,3.39-2.54,5.76h-2.37c.34-4.41.85-9.15,1.02-12.2h1.86c.85,1.36,1.69,1.52,3.56,1.52h24.57c1.69,0,2.54-.34,3.56-1.52h1.86c0,2.54.34,7.96.68,11.86h-2.37c0,.17,0,0,0,0l-.17.17h0Z" style="fill: #16253e;"/>
    <path d="M303.45,41.34v-2.2c4.74-.51,5.25-.85,5.25-5.93V10c0-5.08-.68-5.59-5.25-5.93V1.86h18.98v2.2c-4.57.51-5.25.85-5.25,5.93v23.21c0,5.08.51,5.42,5.25,5.93v2.2h-18.98Z" style="fill: #16253e;"/>
    <path d="M349.19.85c11.35,0,20.67,8.3,20.67,20.33s-9.32,21.18-20.84,21.18-21.18-8.98-21.18-20.67,7.45-20.84,21.52-20.84c0,0-.17,0-.17,0ZM348.17,3.56c-6.27,0-10.84,6.1-10.84,16.94s4.07,19.15,12.37,19.15,10.34-5.59,10.34-16.77-4.74-19.31-11.86-19.31h-.01Z" style="fill: #16253e;"/>
    <path d="M417.81,3.9c-3.73.51-4.91,1.36-5.08,4.07-.17,2.37-.34,4.41-.34,9.83v24.23h-3.39l-25.58-30.5v13.72c0,5.25,0,7.62.34,9.49.17,2.71,1.52,4.07,6.1,4.41v2.2h-15.25v-2.2c3.56-.34,5.08-1.19,5.42-4.07.17-2.2.34-4.41.34-9.66v-14.4c0-2.03,0-3.39-1.36-4.91-1.19-1.52-2.54-1.69-5.08-2.03V1.86h12.03l23.38,27.11v-11.01c0-5.25,0-7.29-.34-9.66-.17-2.71-1.19-3.9-6.27-4.24V1.86h15.08v2.2h0v-.17h0Z" style="fill: #16253e;"/>
  </g>
  <g id="Algeria">
    <path d="M36.29,108.17v-3.46c5.89-.84,5.89-1.87,4.58-5.89-.94-2.81-2.43-7.01-3.83-10.76h-18.33c-1.03,2.9-2.34,6.45-3.27,9.35-1.96,5.89.28,6.64,7.67,7.3v3.46H0v-3.46c5.89-.75,7.39-1.59,10.66-9.45l19.55-48.36,4.49-.84c5.99,16.27,12.44,32.92,18.52,48.54,3.46,8.7,4.3,9.35,10.38,10.1v3.46h-27.31ZM28.06,63.46c-2.71,6.73-5.33,13-7.67,19.83h14.97l-7.2-19.83h-.1Z" style="fill: #16253e;"/>
    <path d="M116.73,91.7c-.75,4.02-3.37,13.94-4.21,16.46h-46.58v-3.46c8.23-.56,8.98-1.22,8.98-9.07v-35.64c0-7.86-.94-8.61-7.95-9.17v-3.46h29.28v3.46c-7.3.65-8.23,1.31-8.23,9.17v36.29c0,5.14.19,7.48,5.33,7.58.19.09,4.49.09,4.86.09,5.33,0,6.73-1.12,8.98-3.65,1.78-1.87,4.21-5.89,5.89-9.73l3.55,1.12h.1Z" style="fill: #16253e;"/>
    <path d="M185.2,82.54c-5.33.94-5.99,1.31-5.99,7.67v7.2c0,3.37.09,6.55.56,9.07-4.77.84-15.15,3.09-22.73,3.09-22.07,0-34.79-13.38-34.79-31.89s17.21-31.61,37.23-31.61,15.9,1.87,18.99,2.15c.19,4.12.94,11.22,1.59,16.37l-3.65.65c-2.24-7.95-5.71-11.97-11.6-13.94-2.15-.75-5.61-1.12-7.95-1.12-11.32,0-19.92,9.82-19.92,25.91s5.8,29.63,21.23,29.46c4.82-.05,4.44-.34,5.99-1.31,1.4-.84,2.15-2.43,2.15-5.33v-8.23c0-6.55-1.31-7.2-9.17-8.14v-3.46h28.06v3.46h0Z" style="fill: #16253e;"/>
    <path d="M243.37,92.27c-.47,2.53-3.09,13.28-3.93,15.9h-48.73v-3.37c8.51-.84,9.07-1.31,9.07-9.17v-35.73c0-7.95-1.12-8.51-7.48-9.07v-3.46h30.49c9.91,0,13.19-.09,14.5-.19.09,1.68.56,9.35.94,15.15l-3.65.47c-.84-3.18-2.43-7.01-4.02-8.7-1.68-1.87-2.9-2.43-7.67-2.43h-6.08c-3.55,0-3.93.19-3.93,3.37v19.55h9.17c5.24,0,6.17-1.4,7.58-8.04h3.65v20.86h-3.65c-1.5-6.92-2.24-8.04-7.67-8.04h-9.07v16.09c0,6.45.19,8.42,5.99,8.51h6.64c5.24,0,6.64-.65,8.7-3.18,2.34-2.71,4.21-6.17,5.71-9.35l3.46.84h-.02Z" style="fill: #16253e;"/>
    <path d="M308.01,108.73c-.56,0-1.68,0-2.81-.09-11.97-.56-15.43-3.09-18.24-7.01-3.74-5.14-6.45-10.85-9.63-16.46-1.4-2.53-2.71-3.09-5.71-3.09h-1.87c0-.09,0,13.56,0,13.56,0,7.58.94,8.23,7.95,9.07v3.46h-28.71v-3.46c7.11-.75,7.95-1.5,7.95-9.07v-35.82c0-7.39-.94-8.42-7.95-8.98v-3.46h27.22c8.32,0,13.19.94,17.02,3.55,3.74,2.53,6.27,6.64,6.27,12.44,0,8.32-5.52,12.72-11.69,15.15,1.4,2.81,5.05,8.89,7.86,13.19,3.27,5.14,5.33,7.67,7.11,9.73,2.15,2.43,3.18,3.18,5.89,4.12l-.65,3.18h-.01ZM272.18,78.14c4.02,0,7.11-.65,9.17-2.43,3.09-2.62,4.4-6.17,4.4-10.94,0-9.91-5.71-13.47-11.04-13.47s-3.74.37-4.3.94c-.65.56-.84,1.68-.84,3.55v22.35h2.62-.01Z" style="fill: #16253e;"/>
    <path d="M311.93,108.17v-3.46c7.11-.65,7.95-1.22,7.95-9.07v-35.64c0-7.86-.94-8.61-7.95-9.17v-3.46h29v3.46c-7.01.65-7.95,1.31-7.95,9.17v35.64c0,7.76.84,8.32,7.95,9.07v3.46h-29Z" style="fill: #16253e;"/>
    <path d="M380.12,108.17v-3.46c5.89-.84,5.89-1.87,4.58-5.89-.94-2.81-2.43-7.01-3.83-10.76h-18.33c-1.03,2.9-2.34,6.45-3.27,9.35-1.96,5.89.28,6.64,7.67,7.3v3.46h-23.2v-3.46c5.89-.75,7.39-1.59,10.66-9.45l19.55-48.36,4.49-.84c5.99,16.27,12.44,32.92,18.52,48.54,3.46,8.7,4.3,9.35,10.38,10.1v3.46h-27.22ZM371.89,63.46c-2.71,6.73-5.33,13-7.67,19.83h14.97l-7.2-19.83h-.1Z" style="fill: #16253e;"/>
  </g>
</svg>