<svg xmlns="http://www.w3.org/2000/svg" id="Calque" viewBox="0 0 515.54 109.78"><g id="Desert"><path d="M514.7,41.2c-1.9-1-4.3-1-6.4-.7-.8.2-1.5,0-2.2-.3-1.5-1-3.1-1.8-4.9-1.5-.6,0-1.4.3-2,.2-1.1-.1-1.7-1.1-2.6-1.6-1.5-.9-1.4.7-1.5,1.7-.1.5-.5.7-1,.9-2.9.7,1,3.1.2,4.7-1.7,2.2-2.6,4.8-4,7.2-.4.6-.9,1-1.5,1.4-1.4.9-2.6,2.1-4.2,2.3-.7.1-1.4,0-1.8-.6-.5-.7-1-1.6-1.9-1.9-9.3-4.4-3.9-4.6-7.3-11.5-1-1.4-2.9-1.9-4.4-2.5-1.8-1.4-1.7-4.2-2.8-6-.5-1.1-1.5-1.9-2.3-2.7-1.3-1.3-1.9-3-2.2-4.7-.3-1.2-1-2.4-1-3.7-.1-2,.6-4.5-1-6.2-.4-.4-.7-.9-.8-1.4.2-2,.3-4.2.3-6.3-.3-1.5-1.4-2.7-1.3-4.3,0-1.3-1.6-.6-2.4-1.2-2-.9-2.9-.8-4,1.1-.5.4-1.3.7-1.3,1.6,0,1.5,1.1,3.1.6,4.7-.4,1.5-1.8,1.8-2.1,3.3-.2.6-.4,1.3-1.1,1.3-1.7-.1-3.4.9-5.1.7-.4,0-.8-.1-1.1-.2-.9-.2-2.4.5-2.1,1.6.2.6,1.2,1,1.5,1.6.2.5.3,1,.2,1.5-.2,2.8-.1,5.6-.8,8.3-.3.8-1.2.5-1.9.6-1.2,0-2.3.5-3.3,1.1-2.5,1.3-4.6,3.3-5.7,5.9-.2.5-.4,1-.8,1.5-1.6,1.7-4.3,2.8-4.7,5.2-.2.8,0,1.7-.2,2.4-.4,1-1.4,1.8-1.7,2.9-.4,1.1.3,2.3-.1,3.6-.1.5-.3,1.1-.5,1.6-.3,1-1.4,1.4-2.2,2-1.5,1.4-3,3.5-2.8,5.6.1,1,.2,2.1-.3,3.1-.4.8-1,1.5-1.2,2.4-.5,1.2-.2,2.8-.9,3.9-.9,1.2-2.6,2.5-1,4,0,0,.3.2.2.1h0c0-.3-.7-1.4-.2-1.3.3.1.6.4.9.5.2,0,.3-.2.4-.4.2-1,.9-1.7,1.7-2.2,4.6-2.9.4-9.3,3.5-12.1.6-.2.3,1.9.5,2.6,1.7,7.2,1.6,5.8-1,12.6-.8,2.8-2.4,5.4-4.5,7.4-1.4,1.3-3,3-3.7,4.7-1.8,3.7,0,7.4,0,11.7-.3,3.1.6,6.1,1,9.1,0,1.3.7,2.2,2.2,2.4,7.3.8,1-4.1.6-7.3-1.3-6.3-1.2-13.7,3.4-18.6,1.5-1.4,2.8-4.1,4.9-4.4.5.1.4,1.2.4,2.1v5.5c-.3,5.2-1.2,4.4,1,7.8,1.7,2.8,3.7,5.5,5.2,8.3.6,1.2.6,2.8.9,4.1.4,2.6,2.9,2.6,5,2.4,3.2,0,1.5-1.3.4-2.8-3.3-4-5.5-8.6-7.7-13.2-.9-2-.5-4.2-.8-6.3-.6-4.5,1-8.9,3.9-12.3.2-.2.5-.5.8-.5.6,0,.6.7.4,1.4-.2.9,0,1.7.9,1.9,2.4.8,1.7-3.6,4-2.8.6.2.7.7.5,1.3-.4,1.1.3,2.2,1.4,2.2,1.8.1,1.4-3.2,3.2-2.9,1.5.3.2,2,.7,2.9.7,1.3,2.4,1,2.8-.3.4-1.1.7-2.2,2.2-2,1.5,0,.9,1.2.9,2.1,0,1.3,2.2,2.1,3.1,1.1.7-.8.5-2.4,1.4-2.7.5-.2,1.2-.2,1.6.2.3.4,0,1.1,0,1.5,0,.7.5,1.2,1.2,1.4,2.4.7,1.8-1.8,2.8-2.8.8-.5,1.9-.2,1.8.9-.1,1.2,1.3,1.8,1.4,2.9-.5,4.4-2.8,8.8-2.4,13.3.3,4.9-.4,9.9-1,14.7,0,.7.5,1.2,1.3,1.4,1.2.4,3.1.6,3.5,0,.2-.3.1-.7,0-1.2-.4-1.6-.8-3.1-1-4.7-.6-3.5,0-6.8,1-10.2.6-4.7,2.1-9.1,3.4-13.6.1-.6.5-1.3,1.1-.7,3,3.3,7.8,7.7,4.8,12.4-2.4,4.2-3.9,8.8-5.9,13.2-.3.7-.6,1.6-.1,2.2.8.8,2.3,1.5,3.3,1.5.8,0,.9-.8.9-1.5,0-3.8,1-7.7,2.4-11.2.9-1.8,2.2-3.5,3.1-5.4,3-5.2-2.7-8.7-3.4-13.5-.2-1.2.7-2.3,1.6-3,.5-.4,1,0,1.3.3,1,1.5,2.1,2.9,3.5,4.1,8.1,7.1,17,2.1,21.2-6.4,5.6-6.8,8-15.5,10.7-23.8.2-.7.6-1.3,1.4-1.5,2.3-.5,3-3.2,2-5.2-.2-.3,0,0-.2.2h0s-.2-.2-.2-.2ZM413.3,72.9v-.9h.1v.9h-.2.1ZM415.9,67.4h-.2c.1-.4.2-.8.4-1h.1c0,.4-.2.8-.4,1.1h.1v-.1ZM415.9,65.6s-.1,0-.1-.1c.2-.4.4-.6.6-1h.2c-.2.4-.4.8-.6,1.1h-.1ZM417.4,60.1h-.1v-.9h.1v.9h0ZM491.7,80.9c-5.2,1.9-10.9-1.2-13.7-5.7-.3-.5,0-.3.3-.1,3.4,2.4,7.6,3.7,11.8,3.2,2.5-.2,4.9-1.2,7.2-2.1v.3c-1.2,2-3.3,3.6-5.5,4.4h-.1,0ZM500.5,71.1c-4.8,7-16.2,7.7-22.3,1.8-.5-.6-.3-.6.4-.7.5,0,.8-.5,1.2-.6.1,0,.2,0,.3.2.1.1,0,.1.4.4.9.8,2.4,0,3.3.4.7.3,1-.3,1.4-.7.3-.3.8,0,1.1-.3.3-.1.5-.4.7-.6.5-.3,1.1,0,1.7,0h1.3c.5-.2,1-.7,1.5-.7,1.5,0,1.9-1.7,3-2.5,1.6-.9,1.6-2.9,2.8-4.1,1.2-1,3.1.4,4-.9.4-.7.6-1.4,1.3-1.8,1.2-1,1.1-2.7,1.7-4,.3-.6,1.2-.5,1.7-1.1s.5-1.6,1.1-2c.6-.2.4.7.3,1.1-2.1,5.4-4.7,10.8-6.8,16.3h0v.1s-.1-.3-.1-.3ZM504.2,65.3c2-5.4,4-10.8,5.9-16.3.1-.5.5-1.7,1.1-1.5-.2,2.6-5.5,15.4-7,17.8h0Z" style="fill: #c29b4c;"></path></g><g id="Destination"><path d="M18.8,1.5c7.8,0,13.6,1.7,17.5,5.2,3,2.9,5.4,7.1,5.4,13.4s-2.9,12.4-7.6,15.9c-4.6,3.4-10.3,5.1-17.3,5.1H0v-2.2c4.7-.3,5.2-.8,5.2-5.9V9.8c0-5.1-.7-5.6-5.2-5.9V1.7h18.8v-.2ZM13.7,32.5c0,4.4,1,5.8,5.6,5.8,8.3,0,13-5.8,13-17.3s-1.5-10.8-4.4-13.6c-2.5-2.5-5.8-3.4-9.8-3.4s-3.2.5-3.7.8c-.5.5-.7,1.5-.7,3.4v24.1h0v.2h0Z" style="fill: #1f2937;"></path><path d="M80.8,30.8c-.3,1.7-2,8.6-2.5,10.3h-31.8v-2.2c5.6-.5,5.9-.8,5.9-5.9V9.7c0-5.2-.7-5.6-4.9-5.9V1.5h29.5c0,1,.3,6.1.7,9.8l-2.4.3c-.5-2-1.5-4.6-2.5-5.8-1.2-1.2-1.9-1.5-5.1-1.5h-3.9c-2.4,0-2.5,0-2.5,2.2v12.7h5.9c3.4,0,4.1-.9,4.9-5.2h2.4v13.5h-2.4c-1-4.6-1.5-5.2-5.1-5.2h-5.9v10.5c0,4.2,0,5.4,3.9,5.6h4.4c3.4,0,4.4-.3,5.8-2,1.5-1.7,2.7-4.1,3.7-6.1l2.2.5s-.3,0-.3,0Z" style="fill: #1f2937;"></path><path d="M108.3,11.7c-1.2-3.9-2.9-8.3-8.6-8.3s-5.9,2.5-5.9,5.9,2.2,5.4,7.6,8.1c6.6,3.2,10.7,6.4,10.7,12.4s-5.9,12.4-14.7,12.4-7.4-1-10.3-1.9c-.3-1.4-1.4-7.8-1.9-10.7l2.4-.5c1.2,3.9,4.7,10.5,10.7,10.5s5.9-2.4,5.9-6.3-2.2-5.6-7.3-8.3c-6.4-3.4-10.5-6.4-10.5-12.9S91.3.7,100.5.7s7.4.8,8.8,1c.2,2.2.7,5.4,1.2,9.3l-2.4.5h0l.2.2h0Z" style="fill: #1f2937;"></path><path d="M150.6,12c-.7-2.9-2-5.1-2.7-5.9-1.2-1.4-1.5-1.7-5.2-1.7h-3.9v28.6c0,5.1.7,5.4,6.1,5.9v2.2h-20.3v-2.2c5.2-.3,5.8-.8,5.8-5.9V4.4h-3.7c-3.4,0-4.4.5-5.6,2-.8,1.2-1.7,3.4-2.5,5.8h-2.4c.3-4.4.8-9.1,1-12.2h1.9c.8,1.4,1.7,1.5,3.6,1.5h24.6c1.7,0,2.5-.3,3.6-1.5h1.9c0,2.5.3,8,.7,11.9h-2.4c0,.2,0,0,0,0l-.2.2h0l-.3-.1h0Z" style="fill: #1f2937;"></path><path d="M157.2,41.2v-2.2c4.7-.3,5.2-.8,5.2-5.9V9.8c0-5.1-.7-5.6-5.2-5.9V1.7h19v2.2c-4.6.3-5.2.9-5.2,5.9v23.2c0,5.1.5,5.4,5.2,5.9v2.2h-19v.1Z" style="fill: #1f2937;"></path><path d="M224,3.7c-3.7.5-4.9,1.4-5.1,4.1-.2,2.4-.3,4.4-.3,9.8v24.2h-3.4l-25.6-30.5v13.7c0,5.2,0,7.6.3,9.5.2,2.7,1.5,4.1,6.1,4.4v2.2h-15.2v-2.2c3.6-.3,5.1-1.2,5.4-4.1.2-2.2.3-4.4.3-9.7v-14.4c0-2,0-3.4-1.4-4.9-1.2-1.5-2.5-1.7-5.1-1.9V1.9h12l23.4,26.9v-11c0-5.2,0-7.3-.2-9.5-.2-2.7-1.2-3.9-6.3-4.2V1.9h15.1v2.2h0l-.2-.3h0l.2-.1Z" style="fill: #1f2937;"></path><path d="M247.9,41.2v-2.2c3.9-.5,3.9-1.2,3.1-3.9-.7-1.9-1.5-4.6-2.5-7h-12c-.7,1.9-1.5,4.2-2.2,6.1-1.4,3.9.2,4.4,5.1,4.7v2.2h-15.1v-2.2c3.9-.5,4.9-1,6.9-6.1l12.7-31.5,2.9-.5c3.9,10.7,8.1,21.5,12,31.7,2.2,5.8,2.9,6.1,6.8,6.6v2.2h-17.8l.2-.2h0l-.1.1h0ZM242.4,12c-1.9,4.4-3.6,8.5-5.1,12.9h9.8l-4.7-12.9h0Z" style="fill: #1f2937;"></path><path d="M296.8,12c-.7-2.9-2-5.1-2.7-5.9-1-1.4-1.5-1.7-5.2-1.7h-3.9v28.6c0,5.1.7,5.4,6.1,5.9v2.2h-20.3v-2.2c5.2-.3,5.8-.8,5.8-5.9V4.4h-3.7c-3.4,0-4.4.5-5.6,2-.9,1.2-1.7,3.4-2.5,5.8h-2.4c.3-4.4.9-9.1,1-12.2h1.9c.9,1.4,1.7,1.5,3.6,1.5h24.6c1.7,0,2.5-.3,3.6-1.5h1.9c0,2.5.3,8,.7,11.9h-2.4c0,.2,0,0,0,0l-.2.2h0l-.3-.1Z" style="fill: #1f2937;"></path><path d="M303.5,41.3v-2.2c4.7-.5,5.2-.8,5.2-5.9V10c0-5.1-.7-5.6-5.2-5.9V1.9h19v2.2c-4.6.5-5.2.8-5.2,5.9v23.2c0,5.1.5,5.4,5.2,5.9v2.2s-19,0-19,0Z" style="fill: #1f2937;"></path><path d="M349.2.9c11.4,0,20.7,8.3,20.7,20.3s-9.3,21.2-20.8,21.2-21.2-9-21.2-20.7,7.5-20.8,21.5-20.8c0,0-.2,0-.2,0ZM348.2,3.6c-6.3,0-10.8,6.1-10.8,16.9s4.1,19.2,12.4,19.2,10.3-5.6,10.3-16.8-4.7-19.3-11.9-19.3h0Z" style="fill: #1f2937;"></path><path d="M417.8,3.9c-3.7.5-4.9,1.4-5.1,4.1-.2,2.4-.3,4.4-.3,9.8v24.2h-3.4l-25.6-30.5v13.7c0,5.2,0,7.6.3,9.5.2,2.7,1.5,4.1,6.1,4.4v2.2h-15.2v-2.2c3.6-.3,5.1-1.2,5.4-4.1.2-2.2.3-4.4.3-9.7v-14.4c0-2,0-3.4-1.4-4.9-1.2-1.5-2.5-1.7-5.1-2V1.9h12l23.4,27.1v-11c0-5.2,0-7.3-.3-9.7-.2-2.7-1.2-3.9-6.3-4.2V1.9h15.1v2.2h0v-.2s.1,0,.1,0Z" style="fill: #1f2937;"></path></g><g id="Algeria"><path d="M36.3,108.2v-3.5c5.9-.8,5.9-1.9,4.6-5.9-.9-2.8-2.4-7-3.8-10.8h-18.3c-1,2.9-2.3,6.4-3.3,9.3-2,5.9.3,6.6,7.7,7.3v3.5H0v-3.5c5.9-.8,7.4-1.6,10.7-9.4l19.5-48.4,4.5-.8c6,16.3,12.4,32.9,18.5,48.5,3.5,8.7,4.3,9.3,10.4,10.1v3.5h-27.3v.1ZM28.1,63.5c-2.7,6.7-5.3,13-7.7,19.8h15l-7.2-19.8s-.1,0-.1,0Z" style="fill: #1f2937;"></path><path d="M116.7,91.7c-.8,4-3.4,13.9-4.2,16.5h-46.6v-3.5c8.2-.6,9-1.2,9-9.1v-35.6c0-7.9-.9-8.6-7.9-9.2v-3.5h29.3v3.5c-7.3.7-8.2,1.3-8.2,9.2v36.3c0,5.1.2,7.5,5.3,7.6h4.9c5.3,0,6.7-1.1,9-3.7,1.8-1.9,4.2-5.9,5.9-9.7l3.6,1.1h0l-.1.1h0Z" style="fill: #1f2937;"></path><path d="M185.2,82.5c-5.3.9-6,1.3-6,7.7v7.2c0,3.4,0,6.6.6,9.1-4.8.8-15.1,3.1-22.7,3.1-22.1,0-34.8-13.4-34.8-31.9s17.2-31.6,37.2-31.6,15.9,1.9,19,2.2c.2,4.1.9,11.2,1.6,16.4l-3.6.7c-2.2-8-5.7-12-11.6-13.9-2.1-.8-5.6-1.1-7.9-1.1-11.3,0-19.9,9.8-19.9,25.9s5.8,29.6,21.2,29.5c4.8,0,4.4-.3,6-1.3,1.4-.8,2.1-2.4,2.1-5.3v-8.2c0-6.6-1.3-7.2-9.2-8.1v-3.5h28.1v3.5h0l-.1-.4h0Z" style="fill: #1f2937;"></path><path d="M243.4,92.3c-.5,2.5-3.1,13.3-3.9,15.9h-48.7v-3.4c8.5-.8,9.1-1.3,9.1-9.2v-35.7c0-8-1.1-8.5-7.5-9.1v-3.5h30.5c9.9,0,13.2,0,14.5-.2,0,1.7.6,9.3.9,15.2l-3.6.5c-.8-3.2-2.4-7-4-8.7-1.7-1.9-2.9-2.4-7.7-2.4h-6.1c-3.6,0-3.9.2-3.9,3.4v19.5h9.2c5.2,0,6.2-1.4,7.6-8h3.6v20.9h-3.6c-1.5-6.9-2.2-8-7.7-8h-9.1v16.1c0,6.4.2,8.4,6,8.5h6.6c5.2,0,6.6-.7,8.7-3.2,2.3-2.7,4.2-6.2,5.7-9.3l3.5.8h0s-.1-.1-.1-.1Z" style="fill: #1f2937;"></path><path d="M308,108.7h-2.8c-12-.6-15.4-3.1-18.2-7-3.7-5.1-6.5-10.8-9.6-16.5-1.4-2.5-2.7-3.1-5.7-3.1h-1.9v13.6c0,7.6.9,8.2,8,9.1v3.5h-28.7v-3.5c7.1-.8,8-1.5,8-9.1v-35.8c0-7.4-.9-8.4-7.9-9v-3.5h27.2c8.3,0,13.2.9,17,3.5,3.7,2.5,6.3,6.6,6.3,12.4,0,8.3-5.5,12.7-11.7,15.1,1.4,2.8,5,8.9,7.9,13.2,3.3,5.1,5.3,7.7,7.1,9.7,2.1,2.4,3.2,3.2,5.9,4.1l-.6,3.2h0l-.3.1h0ZM272.2,78.1c4,0,7.1-.7,9.2-2.4,3.1-2.6,4.4-6.2,4.4-10.9,0-9.9-5.7-13.5-11-13.5s-3.7.4-4.3.9c-.6.6-.8,1.7-.8,3.5v22.3h2.6l-.1.1h0Z" style="fill: #1f2937;"></path><path d="M311.9,108.2v-3.5c7.1-.7,8-1.2,8-9.1v-35.6c0-7.9-.9-8.6-8-9.2v-3.5h29v3.5c-7,.7-8,1.3-8,9.2v35.6c0,7.8.8,8.3,8,9.1v3.5h-29Z" style="fill: #1f2937;"></path><path d="M380.1,108.2v-3.5c5.9-.8,5.9-1.9,4.6-5.9-.9-2.8-2.4-7-3.8-10.8h-18.3c-1,2.9-2.3,6.4-3.3,9.3-2,5.9.3,6.6,7.7,7.3v3.5h-23.2v-3.5c5.9-.8,7.4-1.6,10.7-9.4l19.5-48.4,4.5-.8c6,16.3,12.4,32.9,18.5,48.5,3.5,8.7,4.3,9.3,10.4,10.1v3.5h-27.2l-.1.1h0ZM371.9,63.5c-2.7,6.7-5.3,13-7.7,19.8h15l-7.2-19.8h-.1,0Z" style="fill: #1f2937;"></path></g></svg>

