<svg width="400" height="120" viewBox="0 0 400 120" fill="none" xmlns="http://www.w3.org/2000/svg">
  <defs>
    <linearGradient id="goldGradient" x1="0%" y1="0%" x2="100%" y2="100%">
      <stop offset="0%" style="stop-color:#FFD700;stop-opacity:1" />
      <stop offset="50%" style="stop-color:#FFA500;stop-opacity:1" />
      <stop offset="100%" style="stop-color:#FF8C00;stop-opacity:1" />
    </linearGradient>
  </defs>
  
  <!-- Background -->
  <rect width="400" height="120" fill="white" rx="8"/>
  
  <!-- Building Icon -->
  <g transform="translate(50, 20)">
    <!-- Main building -->
    <rect x="10" y="30" width="20" height="50" fill="url(#goldGradient)"/>
    <rect x="35" y="20" width="25" height="60" fill="url(#goldGradient)"/>
    <rect x="65" y="25" width="20" height="55" fill="url(#goldGradient)"/>
    
    <!-- Windows -->
    <rect x="15" y="35" width="3" height="3" fill="white"/>
    <rect x="22" y="35" width="3" height="3" fill="white"/>
    <rect x="15" y="45" width="3" height="3" fill="white"/>
    <rect x="22" y="45" width="3" height="3" fill="white"/>
    
    <rect x="40" y="30" width="4" height="4" fill="white"/>
    <rect x="50" y="30" width="4" height="4" fill="white"/>
    <rect x="40" y="40" width="4" height="4" fill="white"/>
    <rect x="50" y="40" width="4" height="4" fill="white"/>
    
    <!-- Base -->
    <rect x="5" y="80" width="85" height="5" fill="url(#goldGradient)"/>
  </g>
  
  <!-- Text -->
  <text x="120" y="45" font-family="Arial, sans-serif" font-size="28" font-weight="bold" fill="url(#goldGradient)">LOFT ALGERIE</text>
  <text x="120" y="70" font-family="Arial, sans-serif" font-size="12" fill="#666">VOTRE CONFORT NOTRE PRIORITÉ</text>
</svg>